<svg width="159" height="343" viewBox="0 0 159 343" fill="none" xmlns="http://www.w3.org/2000/svg">
<mask id="mask0_7874_1157" style="mask-type:alpha" maskUnits="userSpaceOnUse" x="0" y="0" width="159" height="343">
<rect x="0.703125" width="157.63" height="343" fill="#D9D9D9"/>
</mask>
<g mask="url(#mask0_7874_1157)">
<line y1="-1" x2="343.217" y2="-1" transform="matrix(-0.706074 0.708138 -0.706074 -0.708138 93.1484 -66.3477)" stroke="#D0D0D0" stroke-width="2"/>
<line y1="-1" x2="343.199" y2="-1" transform="matrix(0.718389 0.695641 -0.693542 0.720416 -149.188 154.359)" stroke="#D0D0D0" stroke-width="2"/>
<line y1="-1" x2="343.217" y2="-1" transform="matrix(-0.706074 0.708138 -0.706074 -0.708138 214.328 55.5234)" stroke="#D0D0D0" stroke-width="2"/>
<line y1="-1" x2="343.199" y2="-1" transform="matrix(0.718389 0.695641 -0.693542 0.720416 -29.8125 30.7148)" stroke="#D0D0D0" stroke-width="2"/>
<line y1="-1" x2="343.217" y2="-1" transform="matrix(-0.706074 0.708138 -0.706074 -0.708138 123.547 -35.5156)" stroke="#D0D0D0" stroke-width="2"/>
<line y1="-1" x2="343.199" y2="-1" transform="matrix(0.718389 0.695641 -0.693542 0.720416 -118.984 123.34)" stroke="#D0D0D0" stroke-width="2"/>
<line y1="-1" x2="343.217" y2="-1" transform="matrix(-0.706074 0.708138 -0.706074 -0.708138 244.719 86.3555)" stroke="#D0D0D0" stroke-width="2"/>
<line y1="-1" x2="343.199" y2="-1" transform="matrix(0.718389 0.695641 -0.693542 0.720416 0.390625 -0.304688)" stroke="#D0D0D0" stroke-width="2"/>
<line y1="-1" x2="343.217" y2="-1" transform="matrix(-0.706074 0.708138 -0.706074 -0.708138 150.289 -0.226562)" stroke="#D0D0D0" stroke-width="2"/>
<line y1="-1" x2="343.199" y2="-1" transform="matrix(0.718389 0.695641 -0.693542 0.720416 -84.2734 95.9023)" stroke="#D0D0D0" stroke-width="2"/>
<line y1="-1" x2="343.217" y2="-1" transform="matrix(-0.706074 0.708138 -0.706074 -0.708138 271.461 121.652)" stroke="#D0D0D0" stroke-width="2"/>
<line y1="-1" x2="343.199" y2="-1" transform="matrix(0.718389 0.695641 -0.693542 0.720416 35.1016 -27.75)" stroke="#D0D0D0" stroke-width="2"/>
<line y1="-1" x2="343.217" y2="-1" transform="matrix(-0.706074 0.708138 -0.706074 -0.708138 185.469 28.0078)" stroke="#D0D0D0" stroke-width="2"/>
<line y1="-1" x2="343.199" y2="-1" transform="matrix(0.718389 0.695641 -0.693542 0.720416 -56.7422 60.1211)" stroke="#D0D0D0" stroke-width="2"/>
<line y1="-1" x2="343.217" y2="-1" transform="matrix(-0.706074 0.708138 -0.706074 -0.708138 306.648 149.871)" stroke="#D0D0D0" stroke-width="2"/>
<line y1="-1" x2="343.199" y2="-1" transform="matrix(0.718389 0.695641 -0.693542 0.720416 62.6328 -63.5234)" stroke="#D0D0D0" stroke-width="2"/>
</g>
</svg>
